IMDB rating: 5.4/10 (from 356 users)
Genre: Comedy

CAST:

Whitney Anderson..........Jennifer Prodan
Dragos Bucur..............Radu Prodan
Stefan Iancu..............David Prodan
Velea Alex................Spanu
Catalina Grama............Katia 
Bobonete Mihai............Manase
Razvan Vasilescu..........Nicu
Leonid Doni...............Zero
Mihai Dragomir............Magic
Gheorghe Ifrim............Manea
Lucian Ifrim..............Grigore
Lascus Puiu-Mircea........Bumbescu
Florin Busuioc............Father Pafnutie
Lucia Maier...............Despina
GGabriel Radu.............Iancu

Format                           : Matroska
File size                        : 782 MiB
Duration                         : 1h 43mn
Overall bit rate                 : 1 057 Kbps
Encoded date                     : UTC 2011-09-29 23:01:54
Writing application              : mkvmerge v4.9.1 (\'Ich will\') creado el Jul 11 2011 23:53:15
Writing library                  : libebml v1.2.1 + libmatroska v1.1.1

Video
ID                               : 1
Format                           : AVC
Format/Info                      : Advanced Video Codec
Format profile                   : Main@L2.2
Format settings, CABAC           : Yes
Format settings, ReFrames        : 4 frames
Muxing mode                      : Container profile=Unknown@2.2
Codec ID                         : V_MPEG4/ISO/AVC
Duration                         : 1h 43mn
Bit rate                         : 908 Kbps
Nominal bit rate                 : 923 Kbps
Width                            : 624 pixels
Height                           : 336 pixels
Display aspect ratio             : 1.857
Frame rate                       : 23.976 fps
Resolution                       : 8 bits
Colorimetry                      : 4:2:0
Scan type                        : Progressive
Bits/(Pixel*Frame)               : 0.181
Stream size                      : 671 MiB (86%)
Writing library                  : x264 core 112

Audio
ID                               : 2
Format                           : AC-3
Format/Info                      : Audio Coding 3
Codec ID                         : A_AC3
Duration                         : 1h 43mn
Bit rate mode                    : Constant
Bit rate                         : 128 Kbps
Channel(s)                       : 2 channels
Channel positions                : Front: L R
Sampling rate                    : 48.0 KHz
Stream size                      : 94.7 MiB (12%)
Language                         : Romanian

Text(subtitles)
ID                               : 3
Format                           : VobSub
Codec ID                         : S_VOBSUB
Codec ID/Info                    : The same subtitle format used on DVDs
Language                         : Romanian
Language                         : English
Language                         : Spanish

Recommended player :VLC media player....[url]http://www.videolan.org/vlc/[/url]

SEED back for SPEED 



